<mxfile host="app.diagrams.net" agent="Mozilla/5.0 (Windows NT 10.0; Win64; x64) AppleWebKit/537.36 (KHTML, like Gecko) Chrome/138.0.0.0 Safari/537.36" version="27.2.0">
  <diagram name="Página-1" id="GB-C3A70i_jdNjhyFWAm">
    <mxGraphModel dx="998" dy="518" grid="1" gridSize="10" guides="1" tooltips="1" connect="1" arrows="1" fold="1" page="1" pageScale="1" pageWidth="827" pageHeight="1169" math="0" shadow="0">
      <root>
        <mxCell id="0" />
        <mxCell id="1" parent="0" />
        <mxCell id="VjyhT0kvK5CcjtMDWvuF-1" value="Usuario" style="swimlane;fontStyle=1;align=center;verticalAlign=top;childLayout=stackLayout;horizontal=1;startSize=26;horizontalStack=0;resizeParent=1;resizeParentMax=0;resizeLast=0;collapsible=1;marginBottom=0;whiteSpace=wrap;html=1;" parent="1" vertex="1">
          <mxGeometry x="375" y="8" width="170" height="300" as="geometry" />
        </mxCell>
        <mxCell id="VjyhT0kvK5CcjtMDWvuF-2" value="&lt;div&gt;&lt;span style=&quot;background-color: initial;&quot;&gt;#&lt;/span&gt;Id_Usuario:INT&lt;/div&gt;#NombreUsuario:String&lt;br&gt;&lt;div&gt;&lt;span style=&quot;background-color: initial;&quot;&gt;#&lt;/span&gt;ApellidoUsuario:&lt;span style=&quot;background-color: initial;&quot;&gt;String&lt;/span&gt;&lt;/div&gt;&lt;div&gt;&lt;span style=&quot;background-color: initial;&quot;&gt;#&lt;/span&gt;TipoDOCU:String&lt;/div&gt;&lt;div&gt;&lt;span style=&quot;background-color: initial;&quot;&gt;#&lt;/span&gt;NumDOCU:INT&lt;/div&gt;&lt;div&gt;&lt;span style=&quot;background-color: initial;&quot;&gt;#&lt;/span&gt;TelefonoUsuario:INT&lt;/div&gt;&lt;div&gt;&lt;span style=&quot;background-color: initial;&quot;&gt;#&lt;/span&gt;DirecciónUsuario: String&lt;/div&gt;&lt;div&gt;&lt;span style=&quot;background-color: initial;&quot;&gt;#&lt;/span&gt;ContraseñaUsuario: String&lt;/div&gt;&lt;div&gt;&lt;span style=&quot;background-color: initial;&quot;&gt;#&lt;/span&gt;CorreoUsuario: String&lt;/div&gt;&lt;div&gt;&lt;span style=&quot;background-color: initial;&quot;&gt;#&lt;/span&gt;EstadoUsuario: String&lt;/div&gt;&lt;div&gt;&lt;br&gt;&lt;/div&gt;" style="text;strokeColor=none;fillColor=none;align=left;verticalAlign=top;spacingLeft=4;spacingRight=4;overflow=hidden;rotatable=0;points=[[0,0.5],[1,0.5]];portConstraint=eastwest;whiteSpace=wrap;html=1;" parent="VjyhT0kvK5CcjtMDWvuF-1" vertex="1">
          <mxGeometry y="26" width="170" height="174" as="geometry" />
        </mxCell>
        <mxCell id="VjyhT0kvK5CcjtMDWvuF-3" value="" style="line;strokeWidth=1;fillColor=none;align=left;verticalAlign=middle;spacingTop=-1;spacingLeft=3;spacingRight=3;rotatable=0;labelPosition=right;points=[];portConstraint=eastwest;strokeColor=inherit;" parent="VjyhT0kvK5CcjtMDWvuF-1" vertex="1">
          <mxGeometry y="200" width="170" height="8" as="geometry" />
        </mxCell>
        <mxCell id="VjyhT0kvK5CcjtMDWvuF-4" value="-agregarUsuario():&lt;div&gt;-cambiarEstado():&lt;/div&gt;&lt;div&gt;+consultarUsuario():&lt;/div&gt;&lt;div&gt;-actualizarUsuario():&lt;/div&gt;" style="text;strokeColor=none;fillColor=none;align=left;verticalAlign=top;spacingLeft=4;spacingRight=4;overflow=hidden;rotatable=0;points=[[0,0.5],[1,0.5]];portConstraint=eastwest;whiteSpace=wrap;html=1;" parent="VjyhT0kvK5CcjtMDWvuF-1" vertex="1">
          <mxGeometry y="208" width="170" height="92" as="geometry" />
        </mxCell>
        <mxCell id="VjyhT0kvK5CcjtMDWvuF-29" value="Medicamentos" style="swimlane;fontStyle=1;align=center;verticalAlign=top;childLayout=stackLayout;horizontal=1;startSize=26;horizontalStack=0;resizeParent=1;resizeParentMax=0;resizeLast=0;collapsible=1;marginBottom=0;whiteSpace=wrap;html=1;" parent="1" vertex="1">
          <mxGeometry x="190" y="260" width="180" height="170" as="geometry" />
        </mxCell>
        <mxCell id="VjyhT0kvK5CcjtMDWvuF-30" value="&lt;div&gt;+Id_Medicamentos:int&lt;/div&gt;+NombreMED:String&lt;div&gt;+DescripciónMED:String&lt;/div&gt;&lt;div&gt;+cantidadMedicamento:Int&lt;/div&gt;&lt;div&gt;+frecuenciaMedicamento:String&lt;/div&gt;" style="text;strokeColor=none;fillColor=none;align=left;verticalAlign=top;spacingLeft=4;spacingRight=4;overflow=hidden;rotatable=0;points=[[0,0.5],[1,0.5]];portConstraint=eastwest;whiteSpace=wrap;html=1;" parent="VjyhT0kvK5CcjtMDWvuF-29" vertex="1">
          <mxGeometry y="26" width="180" height="84" as="geometry" />
        </mxCell>
        <mxCell id="VjyhT0kvK5CcjtMDWvuF-31" value="" style="line;strokeWidth=1;fillColor=none;align=left;verticalAlign=middle;spacingTop=-1;spacingLeft=3;spacingRight=3;rotatable=0;labelPosition=right;points=[];portConstraint=eastwest;strokeColor=inherit;" parent="VjyhT0kvK5CcjtMDWvuF-29" vertex="1">
          <mxGeometry y="110" width="180" height="8" as="geometry" />
        </mxCell>
        <mxCell id="VjyhT0kvK5CcjtMDWvuF-32" value="+seleccionarMedicamento():&lt;div&gt;+consultarMedicamento():&lt;/div&gt;&lt;div&gt;+consultarMedicamento()&lt;/div&gt;&lt;div&gt;&lt;br&gt;&lt;/div&gt;" style="text;strokeColor=none;fillColor=none;align=left;verticalAlign=top;spacingLeft=4;spacingRight=4;overflow=hidden;rotatable=0;points=[[0,0.5],[1,0.5]];portConstraint=eastwest;whiteSpace=wrap;html=1;" parent="VjyhT0kvK5CcjtMDWvuF-29" vertex="1">
          <mxGeometry y="118" width="180" height="52" as="geometry" />
        </mxCell>
        <mxCell id="VjyhT0kvK5CcjtMDWvuF-33" value="Vehiculo" style="swimlane;fontStyle=1;align=center;verticalAlign=top;childLayout=stackLayout;horizontal=1;startSize=26;horizontalStack=0;resizeParent=1;resizeParentMax=0;resizeLast=0;collapsible=1;marginBottom=0;whiteSpace=wrap;html=1;" parent="1" vertex="1">
          <mxGeometry x="650" y="210" width="160" height="180" as="geometry" />
        </mxCell>
        <mxCell id="VjyhT0kvK5CcjtMDWvuF-34" value="&lt;div&gt;-Id:Vehiculo: INT&lt;/div&gt;+placaVehiculo:String&lt;div&gt;+colorVehiculo:&lt;span style=&quot;background-color: initial;&quot;&gt;String&lt;/span&gt;&lt;/div&gt;&lt;div&gt;&lt;span style=&quot;background-color: initial;&quot;&gt;+tipoVehiculo:&lt;/span&gt;&lt;span style=&quot;background-color: initial;&quot;&gt;String&lt;/span&gt;&lt;/div&gt;" style="text;strokeColor=none;fillColor=none;align=left;verticalAlign=top;spacingLeft=4;spacingRight=4;overflow=hidden;rotatable=0;points=[[0,0.5],[1,0.5]];portConstraint=eastwest;whiteSpace=wrap;html=1;" parent="VjyhT0kvK5CcjtMDWvuF-33" vertex="1">
          <mxGeometry y="26" width="160" height="84" as="geometry" />
        </mxCell>
        <mxCell id="VjyhT0kvK5CcjtMDWvuF-35" value="" style="line;strokeWidth=1;fillColor=none;align=left;verticalAlign=middle;spacingTop=-1;spacingLeft=3;spacingRight=3;rotatable=0;labelPosition=right;points=[];portConstraint=eastwest;strokeColor=inherit;" parent="VjyhT0kvK5CcjtMDWvuF-33" vertex="1">
          <mxGeometry y="110" width="160" height="8" as="geometry" />
        </mxCell>
        <mxCell id="VjyhT0kvK5CcjtMDWvuF-36" value="-agregarVehículo():&lt;div&gt;-consultarVehículo():&lt;div&gt;-actualizarVehículo():&lt;/div&gt;&lt;div&gt;&lt;br&gt;&lt;/div&gt;&lt;/div&gt;" style="text;strokeColor=none;fillColor=none;align=left;verticalAlign=top;spacingLeft=4;spacingRight=4;overflow=hidden;rotatable=0;points=[[0,0.5],[1,0.5]];portConstraint=eastwest;whiteSpace=wrap;html=1;" parent="VjyhT0kvK5CcjtMDWvuF-33" vertex="1">
          <mxGeometry y="118" width="160" height="62" as="geometry" />
        </mxCell>
        <mxCell id="uHVycouymlZQg291qfFl-9" value="&lt;font style=&quot;vertical-align: inherit;&quot;&gt;&lt;font style=&quot;vertical-align: inherit;&quot;&gt;&lt;font style=&quot;vertical-align: inherit;&quot;&gt;&lt;font style=&quot;vertical-align: inherit;&quot;&gt;Ordenes&lt;/font&gt;&lt;/font&gt;&lt;/font&gt;&lt;/font&gt;" style="swimlane;fontStyle=1;align=center;verticalAlign=top;childLayout=stackLayout;horizontal=1;startSize=26;horizontalStack=0;resizeParent=1;resizeParentMax=0;resizeLast=0;collapsible=1;marginBottom=0;whiteSpace=wrap;html=1;" parent="1" vertex="1">
          <mxGeometry x="30" y="420" width="160" height="240" as="geometry" />
        </mxCell>
        <mxCell id="uHVycouymlZQg291qfFl-10" value="&lt;div&gt;&lt;font style=&quot;vertical-align: inherit;&quot;&gt;&lt;font style=&quot;vertical-align: inherit;&quot;&gt;&lt;font style=&quot;vertical-align: inherit;&quot;&gt;&lt;font style=&quot;vertical-align: inherit;&quot;&gt;&lt;font style=&quot;vertical-align: inherit;&quot;&gt;&lt;font style=&quot;vertical-align: inherit;&quot;&gt;&lt;font style=&quot;vertical-align: inherit;&quot;&gt;&lt;font style=&quot;vertical-align: inherit;&quot;&gt;+Id_Orden:int&lt;/font&gt;&lt;/font&gt;&lt;/font&gt;&lt;/font&gt;&lt;/font&gt;&lt;/font&gt;&lt;/font&gt;&lt;/font&gt;&lt;/div&gt;&lt;font style=&quot;vertical-align: inherit;&quot;&gt;&lt;font style=&quot;vertical-align: inherit;&quot;&gt;&lt;font style=&quot;vertical-align: inherit;&quot;&gt;&lt;font style=&quot;vertical-align: inherit;&quot;&gt;&lt;font style=&quot;vertical-align: inherit;&quot;&gt;&lt;font style=&quot;vertical-align: inherit;&quot;&gt;&lt;font style=&quot;vertical-align: inherit;&quot;&gt;&lt;font style=&quot;vertical-align: inherit;&quot;&gt;+CantidadOrden:int&lt;/font&gt;&lt;/font&gt;&lt;/font&gt;&lt;/font&gt;&lt;/font&gt;&lt;/font&gt;&lt;/font&gt;&lt;/font&gt;&lt;div&gt;&lt;font style=&quot;vertical-align: inherit;&quot;&gt;&lt;font style=&quot;vertical-align: inherit;&quot;&gt;+FechaOrden:date&lt;/font&gt;&lt;/font&gt;&lt;/div&gt;&lt;div&gt;&lt;span style=&quot;text-align: center;&quot;&gt;-estadoOrden:String&lt;/span&gt;&lt;/div&gt;&lt;div style=&quot;text-align: center;&quot;&gt;+descripciónOrden:String&lt;/div&gt;&lt;div&gt;&lt;div&gt;&lt;font style=&quot;vertical-align: inherit;&quot;&gt;&lt;font style=&quot;vertical-align: inherit;&quot;&gt;&lt;font style=&quot;vertical-align: inherit;&quot;&gt;&lt;font style=&quot;vertical-align: inherit;&quot;&gt;&lt;br&gt;&lt;/font&gt;&lt;/font&gt;&lt;/font&gt;&lt;/font&gt;&lt;/div&gt;&lt;/div&gt;" style="text;strokeColor=none;fillColor=none;align=left;verticalAlign=top;spacingLeft=4;spacingRight=4;overflow=hidden;rotatable=0;points=[[0,0.5],[1,0.5]];portConstraint=eastwest;whiteSpace=wrap;html=1;" parent="uHVycouymlZQg291qfFl-9" vertex="1">
          <mxGeometry y="26" width="160" height="104" as="geometry" />
        </mxCell>
        <mxCell id="uHVycouymlZQg291qfFl-11" value="" style="line;strokeWidth=1;fillColor=none;align=left;verticalAlign=middle;spacingTop=-1;spacingLeft=3;spacingRight=3;rotatable=0;labelPosition=right;points=[];portConstraint=eastwest;strokeColor=inherit;" parent="uHVycouymlZQg291qfFl-9" vertex="1">
          <mxGeometry y="130" width="160" height="20" as="geometry" />
        </mxCell>
        <mxCell id="uHVycouymlZQg291qfFl-12" value="&lt;span style=&quot;text-align: center; background-color: initial;&quot;&gt;+consultarOrden():&lt;/span&gt;&lt;div&gt;&lt;span style=&quot;text-align: center;&quot;&gt;+actualizarOrden():&lt;/span&gt;&lt;/div&gt;&lt;div&gt;&lt;span style=&quot;text-align: center;&quot;&gt;+cambiarEstado():&lt;/span&gt;&lt;/div&gt;&lt;div&gt;&lt;span style=&quot;text-align: center;&quot;&gt;+agregarOrden():&lt;/span&gt;&lt;/div&gt;&lt;div&gt;&lt;span style=&quot;text-align: center;&quot;&gt;&lt;br&gt;&lt;/span&gt;&lt;/div&gt;&lt;div&gt;&lt;span style=&quot;text-align: center;&quot;&gt;&lt;br&gt;&lt;/span&gt;&lt;/div&gt;" style="text;strokeColor=none;fillColor=none;align=left;verticalAlign=top;spacingLeft=4;spacingRight=4;overflow=hidden;rotatable=0;points=[[0,0.5],[1,0.5]];portConstraint=eastwest;whiteSpace=wrap;html=1;" parent="uHVycouymlZQg291qfFl-9" vertex="1">
          <mxGeometry y="150" width="160" height="90" as="geometry" />
        </mxCell>
        <mxCell id="-feyDZdlCE9vqxZSIWtA-3" value="" style="endArrow=block;endSize=16;endFill=0;html=1;rounded=0;exitX=1;exitY=0.923;exitDx=0;exitDy=0;exitPerimeter=0;entryX=0;entryY=0.5;entryDx=0;entryDy=0;" parent="1" source="-feyDZdlCE9vqxZSIWtA-5" target="VjyhT0kvK5CcjtMDWvuF-2" edge="1">
          <mxGeometry width="160" relative="1" as="geometry">
            <mxPoint x="210" y="156.57999999999998" as="sourcePoint" />
            <mxPoint x="330" y="157" as="targetPoint" />
          </mxGeometry>
        </mxCell>
        <mxCell id="-feyDZdlCE9vqxZSIWtA-4" value="Paciente" style="swimlane;fontStyle=1;align=center;verticalAlign=top;childLayout=stackLayout;horizontal=1;startSize=26;horizontalStack=0;resizeParent=1;resizeParentMax=0;resizeLast=0;collapsible=1;marginBottom=0;whiteSpace=wrap;html=1;" parent="1" vertex="1">
          <mxGeometry x="50" y="126" width="160" height="92" as="geometry" />
        </mxCell>
        <mxCell id="-feyDZdlCE9vqxZSIWtA-5" value="&lt;span style=&quot;background-color: initial;&quot;&gt;-EPSPaciente():String&lt;/span&gt;" style="text;strokeColor=none;fillColor=none;align=left;verticalAlign=top;spacingLeft=4;spacingRight=4;overflow=hidden;rotatable=0;points=[[0,0.5],[1,0.5]];portConstraint=eastwest;whiteSpace=wrap;html=1;" parent="-feyDZdlCE9vqxZSIWtA-4" vertex="1">
          <mxGeometry y="26" width="160" height="32" as="geometry" />
        </mxCell>
        <mxCell id="-feyDZdlCE9vqxZSIWtA-6" value="" style="line;strokeWidth=1;fillColor=none;align=left;verticalAlign=middle;spacingTop=-1;spacingLeft=3;spacingRight=3;rotatable=0;labelPosition=right;points=[];portConstraint=eastwest;strokeColor=inherit;" parent="-feyDZdlCE9vqxZSIWtA-4" vertex="1">
          <mxGeometry y="58" width="160" height="8" as="geometry" />
        </mxCell>
        <mxCell id="-feyDZdlCE9vqxZSIWtA-7" value="-agregarFormula():" style="text;strokeColor=none;fillColor=none;align=left;verticalAlign=top;spacingLeft=4;spacingRight=4;overflow=hidden;rotatable=0;points=[[0,0.5],[1,0.5]];portConstraint=eastwest;whiteSpace=wrap;html=1;" parent="-feyDZdlCE9vqxZSIWtA-4" vertex="1">
          <mxGeometry y="66" width="160" height="26" as="geometry" />
        </mxCell>
        <mxCell id="-feyDZdlCE9vqxZSIWtA-18" style="edgeStyle=orthogonalEdgeStyle;rounded=0;orthogonalLoop=1;jettySize=auto;html=1;endArrow=none;endFill=0;" parent="1" source="-feyDZdlCE9vqxZSIWtA-8" target="VjyhT0kvK5CcjtMDWvuF-33" edge="1">
          <mxGeometry relative="1" as="geometry" />
        </mxCell>
        <mxCell id="-feyDZdlCE9vqxZSIWtA-8" value="Domiciliario" style="swimlane;fontStyle=1;align=center;verticalAlign=top;childLayout=stackLayout;horizontal=1;startSize=26;horizontalStack=0;resizeParent=1;resizeParentMax=0;resizeLast=0;collapsible=1;marginBottom=0;whiteSpace=wrap;html=1;" parent="1" vertex="1">
          <mxGeometry x="585" y="30" width="160" height="132" as="geometry" />
        </mxCell>
        <mxCell id="vxi0eSHAJxNBY942IR6m-1" value="&lt;span style=&quot;background-color: initial;&quot;&gt;-zonaDomiciliario():String&lt;/span&gt;" style="text;strokeColor=none;fillColor=none;align=left;verticalAlign=top;spacingLeft=4;spacingRight=4;overflow=hidden;rotatable=0;points=[[0,0.5],[1,0.5]];portConstraint=eastwest;whiteSpace=wrap;html=1;" parent="-feyDZdlCE9vqxZSIWtA-8" vertex="1">
          <mxGeometry y="26" width="160" height="32" as="geometry" />
        </mxCell>
        <mxCell id="-feyDZdlCE9vqxZSIWtA-10" value="" style="line;strokeWidth=1;fillColor=none;align=left;verticalAlign=middle;spacingTop=-1;spacingLeft=3;spacingRight=3;rotatable=0;labelPosition=right;points=[];portConstraint=eastwest;strokeColor=inherit;" parent="-feyDZdlCE9vqxZSIWtA-8" vertex="1">
          <mxGeometry y="58" width="160" height="8" as="geometry" />
        </mxCell>
        <mxCell id="-feyDZdlCE9vqxZSIWtA-11" value="&lt;div&gt;&lt;div&gt;-recibirEntrega():&lt;/div&gt;&lt;/div&gt;&lt;div&gt;-consultarEntrega():&lt;/div&gt;&lt;div&gt;-finalizarEntrega():&lt;/div&gt;&lt;div&gt;-adjuntarEvidencia():&lt;/div&gt;&lt;div&gt;&lt;br&gt;&lt;/div&gt;" style="text;strokeColor=none;fillColor=none;align=left;verticalAlign=top;spacingLeft=4;spacingRight=4;overflow=hidden;rotatable=0;points=[[0,0.5],[1,0.5]];portConstraint=eastwest;whiteSpace=wrap;html=1;" parent="-feyDZdlCE9vqxZSIWtA-8" vertex="1">
          <mxGeometry y="66" width="160" height="66" as="geometry" />
        </mxCell>
        <mxCell id="-feyDZdlCE9vqxZSIWtA-28" style="edgeStyle=orthogonalEdgeStyle;rounded=0;orthogonalLoop=1;jettySize=auto;html=1;exitX=0.25;exitY=1;exitDx=0;exitDy=0;entryX=1;entryY=0.5;entryDx=0;entryDy=0;endArrow=none;endFill=0;" parent="1" source="-feyDZdlCE9vqxZSIWtA-12" target="VjyhT0kvK5CcjtMDWvuF-22" edge="1">
          <mxGeometry relative="1" as="geometry">
            <Array as="points">
              <mxPoint x="600" y="730" />
              <mxPoint x="310" y="730" />
            </Array>
          </mxGeometry>
        </mxCell>
        <mxCell id="-feyDZdlCE9vqxZSIWtA-34" style="edgeStyle=orthogonalEdgeStyle;rounded=0;orthogonalLoop=1;jettySize=auto;html=1;exitX=0.15;exitY=0.048;exitDx=0;exitDy=0;entryX=1;entryY=0.5;entryDx=0;entryDy=0;endArrow=none;endFill=0;exitPerimeter=0;" parent="1" source="-feyDZdlCE9vqxZSIWtA-12" target="VjyhT0kvK5CcjtMDWvuF-30" edge="1">
          <mxGeometry relative="1" as="geometry">
            <Array as="points">
              <mxPoint x="609" y="330" />
              <mxPoint x="370" y="330" />
            </Array>
          </mxGeometry>
        </mxCell>
        <mxCell id="-feyDZdlCE9vqxZSIWtA-12" value="Administrador" style="swimlane;fontStyle=1;align=center;verticalAlign=top;childLayout=stackLayout;horizontal=1;startSize=26;horizontalStack=0;resizeParent=1;resizeParentMax=0;resizeLast=0;collapsible=1;marginBottom=0;whiteSpace=wrap;html=1;" parent="1" vertex="1">
          <mxGeometry x="585" y="414" width="160" height="124" as="geometry" />
        </mxCell>
        <mxCell id="-feyDZdlCE9vqxZSIWtA-14" value="" style="line;strokeWidth=1;fillColor=none;align=left;verticalAlign=middle;spacingTop=-1;spacingLeft=3;spacingRight=3;rotatable=0;labelPosition=right;points=[];portConstraint=eastwest;strokeColor=inherit;" parent="-feyDZdlCE9vqxZSIWtA-12" vertex="1">
          <mxGeometry y="26" width="160" height="8" as="geometry" />
        </mxCell>
        <mxCell id="-feyDZdlCE9vqxZSIWtA-15" value="-añadirMedicamentos():&lt;div&gt;-asignarDomicilio():&lt;/div&gt;&lt;div&gt;-asignarRol():&lt;/div&gt;&lt;div&gt;-consultarestadoUsuario():&lt;/div&gt;&lt;div&gt;-actualizarUsuarios():&lt;/div&gt;&lt;div&gt;&lt;br&gt;&lt;/div&gt;" style="text;strokeColor=none;fillColor=none;align=left;verticalAlign=top;spacingLeft=4;spacingRight=4;overflow=hidden;rotatable=0;points=[[0,0.5],[1,0.5]];portConstraint=eastwest;whiteSpace=wrap;html=1;" parent="-feyDZdlCE9vqxZSIWtA-12" vertex="1">
          <mxGeometry y="34" width="160" height="90" as="geometry" />
        </mxCell>
        <mxCell id="-feyDZdlCE9vqxZSIWtA-16" value="" style="endArrow=block;endSize=16;endFill=0;html=1;rounded=0;exitX=0.019;exitY=0.75;exitDx=0;exitDy=0;entryX=1;entryY=0.5;entryDx=0;entryDy=0;exitPerimeter=0;" parent="1" source="vxi0eSHAJxNBY942IR6m-1" target="VjyhT0kvK5CcjtMDWvuF-2" edge="1">
          <mxGeometry width="160" relative="1" as="geometry">
            <mxPoint x="580" y="109" as="sourcePoint" />
            <mxPoint x="660" y="267" as="targetPoint" />
          </mxGeometry>
        </mxCell>
        <mxCell id="-feyDZdlCE9vqxZSIWtA-17" value="" style="endArrow=block;endSize=16;endFill=0;html=1;rounded=0;exitX=0.3;exitY=0.016;exitDx=0;exitDy=0;exitPerimeter=0;" parent="1" source="-feyDZdlCE9vqxZSIWtA-12" target="VjyhT0kvK5CcjtMDWvuF-4" edge="1">
          <mxGeometry width="160" relative="1" as="geometry">
            <mxPoint x="560" y="256" as="sourcePoint" />
            <mxPoint x="520" y="490" as="targetPoint" />
            <Array as="points">
              <mxPoint x="630" y="260" />
            </Array>
          </mxGeometry>
        </mxCell>
        <mxCell id="-feyDZdlCE9vqxZSIWtA-21" value="" style="endArrow=diamondThin;endFill=0;endSize=24;html=1;rounded=0;entryX=0.25;entryY=1;entryDx=0;entryDy=0;exitX=0;exitY=0;exitDx=0;exitDy=0;" parent="1" source="uHVycouymlZQg291qfFl-9" target="-feyDZdlCE9vqxZSIWtA-4" edge="1">
          <mxGeometry width="160" relative="1" as="geometry">
            <mxPoint x="90" y="370" as="sourcePoint" />
            <mxPoint x="250" y="370" as="targetPoint" />
          </mxGeometry>
        </mxCell>
        <mxCell id="VjyhT0kvK5CcjtMDWvuF-21" value="Domicilio" style="swimlane;fontStyle=1;align=center;verticalAlign=top;childLayout=stackLayout;horizontal=1;startSize=26;horizontalStack=0;resizeParent=1;resizeParentMax=0;resizeLast=0;collapsible=1;marginBottom=0;whiteSpace=wrap;html=1;" parent="1" vertex="1">
          <mxGeometry x="140" y="710" width="170" height="190" as="geometry" />
        </mxCell>
        <mxCell id="VjyhT0kvK5CcjtMDWvuF-22" value="&lt;div&gt;&lt;font style=&quot;vertical-align: inherit;&quot;&gt;&lt;font style=&quot;vertical-align: inherit;&quot;&gt;-Id_Domicilio:int&lt;/font&gt;&lt;/font&gt;&lt;/div&gt;&lt;font style=&quot;vertical-align: inherit;&quot;&gt;&lt;font style=&quot;vertical-align: inherit;&quot;&gt;+UbicaciónDomicilio:String&lt;/font&gt;&lt;/font&gt;&lt;div&gt;&lt;font style=&quot;vertical-align: inherit;&quot;&gt;&lt;font style=&quot;vertical-align: inherit;&quot;&gt;&lt;font style=&quot;vertical-align: inherit;&quot;&gt;&lt;font style=&quot;vertical-align: inherit;&quot;&gt;+FechaEntregaDom:datetime&lt;/font&gt;&lt;/font&gt;&lt;/font&gt;&lt;/font&gt;&lt;/div&gt;&lt;div&gt;&lt;font style=&quot;vertical-align: inherit;&quot;&gt;&lt;font style=&quot;vertical-align: inherit;&quot;&gt;&lt;font style=&quot;vertical-align: inherit;&quot;&gt;&lt;font style=&quot;vertical-align: inherit;&quot;&gt;+estadoDomicilio:String&lt;/font&gt;&lt;/font&gt;&lt;/font&gt;&lt;/font&gt;&lt;/div&gt;" style="text;strokeColor=none;fillColor=none;align=left;verticalAlign=top;spacingLeft=4;spacingRight=4;overflow=hidden;rotatable=0;points=[[0,0.5],[1,0.5]];portConstraint=eastwest;whiteSpace=wrap;html=1;" parent="VjyhT0kvK5CcjtMDWvuF-21" vertex="1">
          <mxGeometry y="26" width="170" height="64" as="geometry" />
        </mxCell>
        <mxCell id="VjyhT0kvK5CcjtMDWvuF-23" value="" style="line;strokeWidth=1;fillColor=none;align=left;verticalAlign=middle;spacingTop=-1;spacingLeft=3;spacingRight=3;rotatable=0;labelPosition=right;points=[];portConstraint=eastwest;strokeColor=inherit;" parent="VjyhT0kvK5CcjtMDWvuF-21" vertex="1">
          <mxGeometry y="90" width="170" height="8" as="geometry" />
        </mxCell>
        <mxCell id="VjyhT0kvK5CcjtMDWvuF-24" value="+consultarUbicación():&lt;div&gt;-actualizarUbicación():&lt;/div&gt;&lt;div&gt;-agregarfecha():&amp;nbsp;&lt;/div&gt;&lt;div&gt;-consultarFecha():&lt;/div&gt;&lt;div&gt;-cambiarEstado():&lt;/div&gt;&lt;div&gt;&lt;br&gt;&lt;/div&gt;" style="text;strokeColor=none;fillColor=none;align=left;verticalAlign=top;spacingLeft=4;spacingRight=4;overflow=hidden;rotatable=0;points=[[0,0.5],[1,0.5]];portConstraint=eastwest;whiteSpace=wrap;html=1;" parent="VjyhT0kvK5CcjtMDWvuF-21" vertex="1">
          <mxGeometry y="98" width="170" height="92" as="geometry" />
        </mxCell>
        <mxCell id="-feyDZdlCE9vqxZSIWtA-25" value="" style="endArrow=diamondThin;endFill=1;endSize=24;html=1;rounded=0;entryX=-0.008;entryY=0.742;entryDx=0;entryDy=0;exitX=1;exitY=0.5;exitDx=0;exitDy=0;entryPerimeter=0;" parent="1" source="uHVycouymlZQg291qfFl-10" target="VjyhT0kvK5CcjtMDWvuF-18" edge="1">
          <mxGeometry width="160" relative="1" as="geometry">
            <mxPoint x="550" y="828" as="sourcePoint" />
            <mxPoint x="710" y="828" as="targetPoint" />
          </mxGeometry>
        </mxCell>
        <mxCell id="-feyDZdlCE9vqxZSIWtA-30" style="edgeStyle=orthogonalEdgeStyle;rounded=0;orthogonalLoop=1;jettySize=auto;html=1;exitX=0.856;exitY=1;exitDx=0;exitDy=0;entryX=0.25;entryY=0;entryDx=0;entryDy=0;endArrow=none;endFill=0;exitPerimeter=0;" parent="1" source="uHVycouymlZQg291qfFl-12" target="VjyhT0kvK5CcjtMDWvuF-21" edge="1">
          <mxGeometry relative="1" as="geometry">
            <Array as="points">
              <mxPoint x="168" y="650" />
              <mxPoint x="168" y="680" />
              <mxPoint x="200" y="680" />
              <mxPoint x="200" y="710" />
            </Array>
          </mxGeometry>
        </mxCell>
        <mxCell id="-feyDZdlCE9vqxZSIWtA-31" style="edgeStyle=orthogonalEdgeStyle;rounded=0;orthogonalLoop=1;jettySize=auto;html=1;exitX=0.994;exitY=0.152;exitDx=0;exitDy=0;entryX=1;entryY=0.5;entryDx=0;entryDy=0;endArrow=none;endFill=0;exitPerimeter=0;" parent="1" source="-feyDZdlCE9vqxZSIWtA-11" target="VjyhT0kvK5CcjtMDWvuF-22" edge="1">
          <mxGeometry relative="1" as="geometry">
            <mxPoint x="740" y="109" as="sourcePoint" />
            <mxPoint x="440" y="920" as="targetPoint" />
            <Array as="points">
              <mxPoint x="744" y="109" />
              <mxPoint x="820" y="109" />
              <mxPoint x="820" y="768" />
            </Array>
          </mxGeometry>
        </mxCell>
        <mxCell id="VjyhT0kvK5CcjtMDWvuF-17" value="Inventario" style="swimlane;fontStyle=1;align=center;verticalAlign=top;childLayout=stackLayout;horizontal=1;startSize=26;horizontalStack=0;resizeParent=1;resizeParentMax=0;resizeLast=0;collapsible=1;marginBottom=0;whiteSpace=wrap;html=1;" parent="1" vertex="1">
          <mxGeometry x="380" y="360" width="190" height="232" as="geometry" />
        </mxCell>
        <mxCell id="VjyhT0kvK5CcjtMDWvuF-18" value="&lt;div&gt;-Id_Inventario:INT&lt;/div&gt;&lt;div&gt;&lt;span style=&quot;background-color: initial;&quot;&gt;-StockInventario:String&lt;/span&gt;&lt;/div&gt;&lt;div&gt;-fechaentradaInventario:String&lt;/div&gt;&lt;div&gt;&lt;span style=&quot;background-color: initial;&quot;&gt;-fechasalidaInventario:String&lt;/span&gt;&lt;/div&gt;&lt;div&gt;&lt;span style=&quot;background-color: initial;&quot;&gt;-vencimientoMedicamento:String&lt;/span&gt;&lt;/div&gt;&lt;div&gt;&lt;span style=&quot;background-color: initial;&quot;&gt;-estadoMedicamento:String&lt;/span&gt;&lt;/div&gt;&lt;div&gt;&lt;span style=&quot;background-color: initial;&quot;&gt;&lt;br&gt;&lt;/span&gt;&lt;/div&gt;" style="text;strokeColor=none;fillColor=none;align=left;verticalAlign=top;spacingLeft=4;spacingRight=4;overflow=hidden;rotatable=0;points=[[0,0.5],[1,0.5]];portConstraint=eastwest;whiteSpace=wrap;html=1;" parent="VjyhT0kvK5CcjtMDWvuF-17" vertex="1">
          <mxGeometry y="26" width="190" height="124" as="geometry" />
        </mxCell>
        <mxCell id="VjyhT0kvK5CcjtMDWvuF-19" value="" style="line;strokeWidth=1;fillColor=none;align=left;verticalAlign=middle;spacingTop=-1;spacingLeft=3;spacingRight=3;rotatable=0;labelPosition=right;points=[];portConstraint=eastwest;strokeColor=inherit;" parent="VjyhT0kvK5CcjtMDWvuF-17" vertex="1">
          <mxGeometry y="150" width="190" height="8" as="geometry" />
        </mxCell>
        <mxCell id="-feyDZdlCE9vqxZSIWtA-1" value="&lt;div&gt;&lt;span style=&quot;text-align: center;&quot;&gt;-consultarInventario():&lt;/span&gt;&lt;br&gt;&lt;/div&gt;&lt;div&gt;&lt;span style=&quot;text-align: center;&quot;&gt;-actualizarInventario():&lt;/span&gt;&lt;/div&gt;&lt;div&gt;&lt;span style=&quot;text-align: center;&quot;&gt;-cambiarEstado():&lt;/span&gt;&lt;/div&gt;&lt;div&gt;-agregarMedicamento():&lt;/div&gt;&lt;div&gt;&lt;span style=&quot;text-align: center;&quot;&gt;&lt;br&gt;&lt;/span&gt;&lt;/div&gt;&lt;div&gt;&lt;span style=&quot;text-align: center;&quot;&gt;&lt;br&gt;&lt;/span&gt;&lt;/div&gt;" style="text;strokeColor=none;fillColor=none;align=left;verticalAlign=top;spacingLeft=4;spacingRight=4;overflow=hidden;rotatable=0;points=[[0,0.5],[1,0.5]];portConstraint=eastwest;whiteSpace=wrap;html=1;" parent="VjyhT0kvK5CcjtMDWvuF-17" vertex="1">
          <mxGeometry y="158" width="190" height="72" as="geometry" />
        </mxCell>
        <mxCell id="VjyhT0kvK5CcjtMDWvuF-20" value="&lt;span style=&quot;color: rgba(0, 0, 0, 0); font-family: monospace; font-size: 0px; text-wrap: nowrap;&quot;&gt;%3CmxGraphModel%3E%3Croot%3E%3CmxCell%20id%3D%220%22%2F%3E%3CmxCell%20id%3D%221%22%20parent%3D%220%22%2F%3E%3CmxCell%20id%3D%222%22%20value%3D%22%2BsolicitarServicio()%3A%26amp%3Bnbsp%3B%26lt%3Bdiv%26gt%3B%26lt%3Bspan%20style%3D%26quot%3Btext-align%3A%20center%3B%26quot%3B%26gt%3BconsultarOrden()%3A%26lt%3B%2Fspan%26gt%3B%26lt%3Bbr%26gt%3B%26lt%3B%2Fdiv%26gt%3B%26lt%3Bdiv%26gt%3B%26lt%3Bspan%20style%3D%26quot%3Btext-align%3A%20center%3B%26quot%3B%26gt%3BactualizarOrden()%3A%26lt%3B%2Fspan%26gt%3B%26lt%3B%2Fdiv%26gt%3B%26lt%3Bdiv%26gt%3B%26lt%3Bspan%20style%3D%26quot%3Btext-align%3A%20center%3B%26quot%3B%26gt%3BcambiarEstado()%3A%26lt%3B%2Fspan%26gt%3B%26lt%3B%2Fdiv%26gt%3B%26lt%3Bdiv%26gt%3B%26lt%3Bspan%20style%3D%26quot%3Btext-align%3A%20center%3B%26quot%3B%26gt%3BagregarOrden()%3A%26lt%3B%2Fspan%26gt%3B%26lt%3B%2Fdiv%26gt%3B%26lt%3Bdiv%26gt%3B%26lt%3Bspan%20style%3D%26quot%3Btext-align%3A%20center%3B%26quot%3B%26gt%3B%26lt%3Bbr%26gt%3B%26lt%3B%2Fspan%26gt%3B%26lt%3B%2Fdiv%26gt%3B%26lt%3Bdiv%26gt%3B%26lt%3Bspan%20style%3D%26quot%3Btext-align%3A%20center%3B%26quot%3B%26gt%3B%26lt%3Bbr%26gt%3B%26lt%3B%2Fspan%26gt%3B%26lt%3B%2Fdiv%26gt%3B%22%20style%3D%22text%3BstrokeColor%3Dnone%3BfillColor%3Dnone%3Balign%3Dleft%3BverticalAlign%3Dtop%3BspacingLeft%3D4%3BspacingRight%3D4%3Boverflow%3Dhidden%3Brotatable%3D0%3Bpoints%3D%5B%5B0%2C0.5%5D%2C%5B1%2C0.5%5D%5D%3BportConstraint%3Deastwest%3BwhiteSpace%3Dwrap%3Bhtml%3D1%3B%22%20vertex%3D%221%22%20parent%3D%221%22%3E%3CmxGeometry%20x%3D%22590%22%20y%3D%22440%22%20width%3D%22160%22%20height%3D%2290%22%20as%3D%22geometry%22%2F%3E%3C%2FmxCell%3E%3C%2Froot%3E%3C%2FmxGraphModel%3E&lt;/span&gt;" style="text;strokeColor=none;fillColor=none;align=left;verticalAlign=top;spacingLeft=4;spacingRight=4;overflow=hidden;rotatable=0;points=[[0,0.5],[1,0.5]];portConstraint=eastwest;whiteSpace=wrap;html=1;" parent="VjyhT0kvK5CcjtMDWvuF-17" vertex="1">
          <mxGeometry y="230" width="190" height="2" as="geometry" />
        </mxCell>
        <mxCell id="-feyDZdlCE9vqxZSIWtA-33" style="edgeStyle=orthogonalEdgeStyle;rounded=0;orthogonalLoop=1;jettySize=auto;html=1;exitX=1.003;exitY=-0.308;exitDx=0;exitDy=0;entryX=0.5;entryY=0;entryDx=0;entryDy=0;endArrow=none;endFill=0;exitPerimeter=0;" parent="1" source="-feyDZdlCE9vqxZSIWtA-7" target="VjyhT0kvK5CcjtMDWvuF-29" edge="1">
          <mxGeometry relative="1" as="geometry" />
        </mxCell>
        <mxCell id="A7uwoCTJjM-6Ly5r3lFt-8" value="&lt;font style=&quot;font-size: 13px;&quot;&gt;1&lt;/font&gt;" style="edgeLabel;html=1;align=center;verticalAlign=middle;resizable=0;points=[];" parent="1" connectable="0" vertex="1">
          <mxGeometry x="575.0006438164571" y="130.00236231107795" as="geometry">
            <mxPoint x="85" y="44" as="offset" />
          </mxGeometry>
        </mxCell>
        <mxCell id="A7uwoCTJjM-6Ly5r3lFt-10" value="&lt;font style=&quot;font-size: 13px;&quot;&gt;1..*&lt;/font&gt;&lt;span style=&quot;color: rgba(0, 0, 0, 0); font-family: monospace; font-size: 0px; text-align: start; background-color: rgb(251, 251, 251);&quot;&gt;%3CmxGraphModel%3E%3Croot%3E%3CmxCell%20id%3D%220%22%2F%3E%3CmxCell%20id%3D%221%22%20parent%3D%220%22%2F%3E%3CmxCell%20id%3D%222%22%20value%3D%22%26lt%3Bfont%20style%3D%26quot%3Bfont-size%3A%2013px%3B%26quot%3B%26gt%3B1%26lt%3B%2Ffont%26gt%3B%22%20style%3D%22edgeLabel%3Bhtml%3D1%3Balign%3Dcenter%3BverticalAlign%3Dmiddle%3Bresizable%3D0%3Bpoints%3D%5B%5D%3B%22%20vertex%3D%221%22%20connectable%3D%220%22%20parent%3D%221%22%3E%3CmxGeometry%20x%3D%22555.0006438164571%22%20y%3D%22110.00236231107793%22%20as%3D%22geometry%22%3E%3CmxPoint%20x%3D%2215%22%20y%3D%22-10%22%20as%3D%22offset%22%2F%3E%3C%2FmxGeometry%3E%3C%2FmxCell%3E%3C%2Froot%3E%3C%2FmxGraphModel%3E&lt;/span&gt;" style="edgeLabel;html=1;align=center;verticalAlign=middle;resizable=0;points=[];" parent="1" connectable="0" vertex="1">
          <mxGeometry x="585.0006438164571" y="140.00236231107795" as="geometry">
            <mxPoint x="160" y="50" as="offset" />
          </mxGeometry>
        </mxCell>
        <mxCell id="A7uwoCTJjM-6Ly5r3lFt-18" value="&lt;font style=&quot;font-size: 13px;&quot;&gt;1&lt;/font&gt;" style="edgeLabel;html=1;align=center;verticalAlign=middle;resizable=0;points=[];" parent="1" connectable="0" vertex="1">
          <mxGeometry x="220.00446609291774" y="190.0012916613914" as="geometry" />
        </mxCell>
        <mxCell id="A7uwoCTJjM-6Ly5r3lFt-19" value="1..*" style="edgeLabel;html=1;align=center;verticalAlign=middle;resizable=0;points=[];" parent="1" connectable="0" vertex="1">
          <mxGeometry x="204.00131903002057" y="490.0056466279375" as="geometry">
            <mxPoint x="2" y="-3" as="offset" />
          </mxGeometry>
        </mxCell>
        <mxCell id="A7uwoCTJjM-6Ly5r3lFt-20" value="&lt;font style=&quot;font-size: 13px;&quot;&gt;1&lt;/font&gt;" style="edgeLabel;html=1;align=center;verticalAlign=middle;resizable=0;points=[];" parent="1" connectable="0" vertex="1">
          <mxGeometry x="350.0044660929177" y="490.0012916613914" as="geometry" />
        </mxCell>
        <mxCell id="A7uwoCTJjM-6Ly5r3lFt-21" value="&lt;font style=&quot;font-size: 13px;&quot;&gt;1&lt;/font&gt;" style="edgeLabel;html=1;align=center;verticalAlign=middle;resizable=0;points=[];" parent="1" connectable="0" vertex="1">
          <mxGeometry x="99.99698374323526" y="279.99980768815476" as="geometry" />
        </mxCell>
        <mxCell id="A7uwoCTJjM-6Ly5r3lFt-22" value="0..*" style="edgeLabel;html=1;align=center;verticalAlign=middle;resizable=0;points=[];" parent="1" connectable="0" vertex="1">
          <mxGeometry x="290.00131903002057" y="449.9956466279375" as="geometry">
            <mxPoint x="-270" y="-63" as="offset" />
          </mxGeometry>
        </mxCell>
        <mxCell id="A7uwoCTJjM-6Ly5r3lFt-23" value="&lt;font style=&quot;font-size: 13px;&quot;&gt;1&lt;/font&gt;" style="edgeLabel;html=1;align=center;verticalAlign=middle;resizable=0;points=[];" parent="1" connectable="0" vertex="1">
          <mxGeometry x="203.99698374323526" y="699.9998076881548" as="geometry" />
        </mxCell>
        <mxCell id="A7uwoCTJjM-6Ly5r3lFt-24" value="1..*" style="edgeLabel;html=1;align=center;verticalAlign=middle;resizable=0;points=[];" parent="1" connectable="0" vertex="1">
          <mxGeometry x="440.00131903002057" y="719.9956466279375" as="geometry">
            <mxPoint x="-270" y="-63" as="offset" />
          </mxGeometry>
        </mxCell>
        <mxCell id="A7uwoCTJjM-6Ly5r3lFt-25" value="1..*" style="edgeLabel;html=1;align=center;verticalAlign=middle;resizable=0;points=[];" parent="1" connectable="0" vertex="1">
          <mxGeometry x="290.00131903002057" y="449.9956466279375" as="geometry">
            <mxPoint x="9" y="-202" as="offset" />
          </mxGeometry>
        </mxCell>
        <mxCell id="A7uwoCTJjM-6Ly5r3lFt-26" value="&lt;font style=&quot;font-size: 13px;&quot;&gt;1&lt;/font&gt;" style="edgeLabel;html=1;align=center;verticalAlign=middle;resizable=0;points=[];" parent="1" connectable="0" vertex="1">
          <mxGeometry x="750.0044660929177" y="110.0012916613914" as="geometry" />
        </mxCell>
        <mxCell id="A7uwoCTJjM-6Ly5r3lFt-27" value="1..*" style="edgeLabel;html=1;align=center;verticalAlign=middle;resizable=0;points=[];" parent="1" connectable="0" vertex="1">
          <mxGeometry x="330.00131903002057" y="779.9956466279375" as="geometry">
            <mxPoint x="1" y="-4" as="offset" />
          </mxGeometry>
        </mxCell>
        <mxCell id="A7uwoCTJjM-6Ly5r3lFt-28" value="&lt;font style=&quot;font-size: 13px;&quot;&gt;1&lt;/font&gt;" style="edgeLabel;html=1;align=center;verticalAlign=middle;resizable=0;points=[];" parent="1" connectable="0" vertex="1">
          <mxGeometry x="640.0006438164571" y="400.00236231107795" as="geometry">
            <mxPoint x="-58" as="offset" />
          </mxGeometry>
        </mxCell>
        <mxCell id="A7uwoCTJjM-6Ly5r3lFt-29" value="&lt;font style=&quot;font-size: 13px;&quot;&gt;1..*&lt;/font&gt;&lt;span style=&quot;color: rgba(0, 0, 0, 0); font-family: monospace; font-size: 0px; text-align: start; background-color: rgb(251, 251, 251);&quot;&gt;%3CmxGraphModel%3E%3Croot%3E%3CmxCell%20id%3D%220%22%2F%3E%3CmxCell%20id%3D%221%22%20parent%3D%220%22%2F%3E%3CmxCell%20id%3D%222%22%20value%3D%22%26lt%3Bfont%20style%3D%26quot%3Bfont-size%3A%2013px%3B%26quot%3B%26gt%3B1%26lt%3B%2Ffont%26gt%3B%22%20style%3D%22edgeLabel%3Bhtml%3D1%3Balign%3Dcenter%3BverticalAlign%3Dmiddle%3Bresizable%3D0%3Bpoints%3D%5B%5D%3B%22%20vertex%3D%221%22%20connectable%3D%220%22%20parent%3D%221%22%3E%3CmxGeometry%20x%3D%22555.0006438164571%22%20y%3D%22110.00236231107793%22%20as%3D%22geometry%22%3E%3CmxPoint%20x%3D%2215%22%20y%3D%22-10%22%20as%3D%22offset%22%2F%3E%3C%2FmxGeometry%3E%3C%2FmxCell%3E%3C%2Froot%3E%3C%2FmxGraphModel%3E&lt;/span&gt;" style="edgeLabel;html=1;align=center;verticalAlign=middle;resizable=0;points=[];" parent="1" connectable="0" vertex="1">
          <mxGeometry x="220.0006438164571" y="290.00236231107795" as="geometry">
            <mxPoint x="160" y="50" as="offset" />
          </mxGeometry>
        </mxCell>
        <mxCell id="A7uwoCTJjM-6Ly5r3lFt-30" value="&lt;font style=&quot;font-size: 13px;&quot;&gt;1..*&lt;/font&gt;&lt;span style=&quot;color: rgba(0, 0, 0, 0); font-family: monospace; font-size: 0px; text-align: start; background-color: rgb(251, 251, 251);&quot;&gt;%3CmxGraphModel%3E%3Croot%3E%3CmxCell%20id%3D%220%22%2F%3E%3CmxCell%20id%3D%221%22%20parent%3D%220%22%2F%3E%3CmxCell%20id%3D%222%22%20value%3D%22%26lt%3Bfont%20style%3D%26quot%3Bfont-size%3A%2013px%3B%26quot%3B%26gt%3B1%26lt%3B%2Ffont%26gt%3B%22%20style%3D%22edgeLabel%3Bhtml%3D1%3Balign%3Dcenter%3BverticalAlign%3Dmiddle%3Bresizable%3D0%3Bpoints%3D%5B%5D%3B%22%20vertex%3D%221%22%20connectable%3D%220%22%20parent%3D%221%22%3E%3CmxGeometry%20x%3D%22555.0006438164571%22%20y%3D%22110.00236231107793%22%20as%3D%22geometry%22%3E%3CmxPoint%20x%3D%2215%22%20y%3D%22-10%22%20as%3D%22offset%22%2F%3E%3C%2FmxGeometry%3E%3C%2FmxCell%3E%3C%2Froot%3E%3C%2FmxGraphModel%3E&lt;/span&gt;" style="edgeLabel;html=1;align=center;verticalAlign=middle;resizable=0;points=[];" parent="1" connectable="0" vertex="1">
          <mxGeometry x="160.0006438164571" y="670.002362311078" as="geometry">
            <mxPoint x="160" y="50" as="offset" />
          </mxGeometry>
        </mxCell>
        <mxCell id="A7uwoCTJjM-6Ly5r3lFt-31" value="&lt;font style=&quot;font-size: 13px;&quot;&gt;1&lt;/font&gt;" style="edgeLabel;html=1;align=center;verticalAlign=middle;resizable=0;points=[];" parent="1" connectable="0" vertex="1">
          <mxGeometry x="600.0006438164571" y="550.002362311078" as="geometry" />
        </mxCell>
      </root>
    </mxGraphModel>
  </diagram>
</mxfile>
